#N canvas 606 96 750 383 12;
#X floatatom 210 133 3 0 0 0 - - -;
#X floatatom 237 133 3 0 0 0 - - -;
#X floatatom 264 133 3 0 0 0 - - -;
#X floatatom 291 133 3 0 0 0 - - -;
#X obj 210 109 unpack 0 0 0 0 0;
#X floatatom 319 133 8 0 0 0 - - -;
#X obj 145 86 route received from;
#X floatatom 145 154 5 0 0 0 - - -;
#X obj 112 30 import mrpeach;
#X obj 43 62 udpreceive 9000;
#X obj 27 145 unpackOSC;
#X obj 14 192 print unpacked;
#X obj 140 184 pipelist;
#X obj 568 214 print other;
#X msg 33 759 connect;
#X msg 33 801 \$1 \$2 \$3;
#X obj 33 780 pack s s f;
#X symbolatom 70 641 16 0 0 0 - - -;
#X obj 70 567 loadbang;
#X obj 33 709 t b b s b;
#X obj 110 731 udpsend;
#X msg 110 708 disconnect;
#X obj 156 493 tgl 15 0 empty empty 1=connected 20 8 0 8 -4034 -257985
-1 1 1;
#X text 56 686 GESTION RESEAU SORTANT;
#X msg 95 759 9000;
#X obj 380 629 packOSC;
#X floatatom 419 658 5 0 0 0 - - -;
#X text 454 658 bundle depth;
#X obj 380 717 print >>;
#X obj 380 695 spigot;
#X obj 424 695 tgl 15 0 empty empty raw 17 7 0 10 -257985 -258113 -1
0 1;
#X text 68 620 CONNECT TO:;
#X obj 34 480 bng 30 250 50 0 empty empty empty 32 7 0 10 -4034 -262144
-1;
#X text 67 475 Connecter à l'IP du pi :;
#X obj 70 518 symbol;
#X obj 70 543 t b s;
#X msg 70 492 172.24.1.1;
#X msg 291 572 sendtyped /midi/MIDI_out/0 sii channel_pressure 10 0
;
#X obj 70 590 symbol 172.24.1.1;
#X obj 345 367 print multifader;
#X obj 221 195 unpack f f;
#X obj 403 195 unpack s f;
#X obj 403 223 vs2l /;
#X obj 403 304 ctlout;
#X obj 403 252 pack f f;
#X msg 403 277 \$2 \$1 2;
#X obj 202 316 ctlout;
#X obj 272 316 ctlout;
#X obj 221 170 routeOSC /reson/xy /reson/multifader /reson/faderh;
#X obj 509 314 ctlout;
#X msg 509 287 \$1 2 3;
#X msg 202 289 \$1 1 1;
#X msg 272 289 \$1 2 1;
#X connect 4 0 0 0;
#X connect 4 1 1 0;
#X connect 4 2 2 0;
#X connect 4 3 3 0;
#X connect 4 4 5 0;
#X connect 6 0 7 0;
#X connect 6 1 4 0;
#X connect 9 0 10 0;
#X connect 9 1 6 0;
#X connect 10 0 12 0;
#X connect 10 0 11 0;
#X connect 12 0 48 0;
#X connect 14 0 16 0;
#X connect 15 0 20 0;
#X connect 16 0 15 0;
#X connect 17 0 19 0;
#X connect 18 0 38 0;
#X connect 19 1 14 0;
#X connect 19 2 16 1;
#X connect 19 3 24 0;
#X connect 19 3 21 0;
#X connect 20 0 22 0;
#X connect 21 0 20 0;
#X connect 24 0 16 2;
#X connect 25 0 20 0;
#X connect 25 0 29 0;
#X connect 25 1 26 0;
#X connect 29 0 28 0;
#X connect 30 0 29 1;
#X connect 32 0 36 0;
#X connect 34 0 35 0;
#X connect 35 0 38 0;
#X connect 35 1 38 1;
#X connect 36 0 34 0;
#X connect 37 0 25 0;
#X connect 38 0 17 0;
#X connect 40 0 52 0;
#X connect 40 1 51 0;
#X connect 41 0 42 0;
#X connect 41 1 44 1;
#X connect 42 0 44 0;
#X connect 44 0 45 0;
#X connect 45 0 43 0;
#X connect 48 0 40 0;
#X connect 48 1 41 0;
#X connect 48 1 39 0;
#X connect 48 2 50 0;
#X connect 48 3 13 0;
#X connect 50 0 49 0;
#X connect 51 0 46 0;
#X connect 52 0 47 0;
